# xmcd
#
# Track frame offsets:
#	180
#	17547
#	33812
#
# Disc length: 689 seconds
#
# Revision: 0
# Processed by: cddbd v1.5.1PL0 Copyright (c) Steve Scherf et al.
# Submitted via: audiograbber 1.83.01
#
DISCID=1302af03
DTITLE=Lonestar - Smile [CDS)
DYEAR=2000
DGENRE=
TTITLE0=Smile (Captain Mix)
TTITLE1=Smile (Original Mix)
TTITLE2=Amazed (Acoustic Version)
EXTD=
EXTT0=
EXTT1=
EXTT2=
PLAYORDER=
